# xmcd CD database file
#
# Track frame offsets:
#	150
#	18440
#	36462
#	61040
#	74942
#	97212
#	120405
#	138415
#	158470
#	175725
#	192450
#	209242
#
# Disc length: 3036 seconds
#
# Revision: 3
# Processed by: cddbd v1.4PL0 Copyright (c) Steve Scherf et al.
# Submitted via: CDex 1.40Release
#
DISCID=b50bda0c
DTITLE=Jann Browne - Count Me In
DYEAR=1994
DGENRE=Country
TTITLE0=Hearts on the Blue Train
TTITLE1=Ain't No Promise (In the Promised Land)
TTITLE2=I Have No Witness
TTITLE3=Trouble's Here
TTITLE4=Red Moon Over Lugano
TTITLE5=One Tired Man
TTITLE6=Dear Loretta
TTITLE7=Count Me In
TTITLE8=Baby Goodbye
TTITLE9=Long Time Gone
TTITLE10=When the Darkest Hours Pass
TTITLE11=White Roses
EXTD=YEAR: 1994 ID3G: 2
EXTT0=
EXTT1=
EXTT2=
EXTT3=
EXTT4=
EXTT5=
EXTT6=
EXTT7=
EXTT8=
EXTT9=
EXTT10=
EXTT11=
PLAYORDER=
